<svg xmlns="http://www.w3.org/2000/svg" viewBox="0 0 24 24" fill="none" stroke="currentColor">
  <path d="M10.5 15.5c-3.59 0-6.5-1.84-6.5-4.12 0-2.28 2.91-4.12 6.5-4.12 3.59 0 6.5 1.84 6.5 4.12 0 2.28-2.91 4.12-6.5 4.12zM17 8.5c.83 0 1.5-.67 1.5-1.5s-.67-1.5-1.5-1.5-1.5.67-1.5 1.5.67 1.5 1.5 1.5z" stroke-width="1.5"/>
  <path d="M19.5 2h-15C3.12 2 2 3.12 2 4.5v15C2 20.88 3.12 22 4.5 22h15c1.38 0 2.5-1.12 2.5-2.5v-15C22 3.12 20.88 2 19.5 2z" stroke-width="1.5"/>
  <path d="M10.5 13.5c1.38 0 2.5-.67 2.5-1.5s-1.12-1.5-2.5-1.5S8 11.17 8 12s1.12 1.5 2.5 1.5z" stroke-width="1.5"/>
  <path d="M17.5 10c.83 0 1.5-.67 1.5-1.5s-.67-1.5-1.5-1.5-1.5.67-1.5 1.5.67 1.5 1.5 1.5z" stroke-width="1.5"/>
</svg> 